<?xml version="1.0" encoding="UTF-8"?>
<svg width="66px" height="31px" viewBox="0 0 66 31" version="1.1" xmlns="http://www.w3.org/2000/svg" xmlns:xlink="http://www.w3.org/1999/xlink">
    <!-- Generator: Sketch 50.2 (55047) - http://www.bohemiancoding.com/sketch -->
    <title>Gravio Logo</title>
    <desc>Created with Sketch.</desc>
    <defs/>
    <g id="Page-1" stroke="none" stroke-width="1" fill="none" fill-rule="evenodd">
        <g id="Logo" fill="#2DE8B6">
            <path d="M21.64692,17.15196 C22.34292,22.04436 26.20252,25.93036 31.08172,26.66636 L31.08172,30.20516 C25.50612,29.57156 20.87612,25.82836 18.96572,20.75196 L0.00012,20.75196 L0.00012,17.15196 L21.64692,17.15196 Z" id="Fill-1"/>
            <path d="M21.90884,13.55196 C22.68284,8.10916 27.37164,3.90956 33.02524,3.90956 C36.06564,3.90956 38.82524,5.12556 40.84924,7.09476 L43.33484,4.60876 C40.67724,2.00596 37.03924,0.39996 33.02524,0.39996 C26.71084,0.39996 21.32884,4.37196 19.22964,9.95196 L4e-05,9.95196 L4e-05,13.55196 L21.90884,13.55196 Z" id="Fill-3"/>
            <polygon id="Fill-6" points="46.986 13.55204 65.7636 13.55204 65.7636 9.95204 46.986 9.95204"/>
            <path d="M31.08188,17.15196 L31.08188,20.75196 L43.13828,20.75196 C41.48148,23.91716 38.36308,26.20196 34.68188,26.69356 L34.68188,30.22716 C40.34068,29.65716 45.05268,25.88556 46.98388,20.75196 L65.76388,20.75196 L65.76388,17.15196 L31.08188,17.15196 Z" id="Fill-8"/>
        </g>
    </g>
</svg>